<?xml version="1.0" encoding="UTF-8" standalone="no"?>
<svg width="427px" height="68px" viewBox="0 0 427 68" version="1.1" xmlns="http://www.w3.org/2000/svg" xmlns:xlink="http://www.w3.org/1999/xlink">
    <!-- Generator: Sketch 3.6.1 (26313) - http://www.bohemiancoding.com/sketch -->
    <title>The Division  + Line + Page 1</title>
    <desc>Created with Sketch.</desc>
    <defs>
        <path id="path-1" d="M0,0.578948661 L290.983214,0.578948661 L290.983214,66.047619 L0,66.047619"></path>
        <path id="path-3" d="M0,0.578948661 L290.983214,0.578948661 L290.983214,66.047619 L0,66.047619 L0,0.578948661 Z"></path>
    </defs>
    <g id="Index-accepted" stroke="none" stroke-width="1" fill="none" fill-rule="evenodd">
        <g id="index" transform="translate(-279.000000, -59.000000)">
            <g id="The-Division--+-Line-+-Page-1" transform="translate(279.000000, 59.000000)">
                <text id="The-Division-" opacity="0.699999988" font-family="Lato-Regular, Lato" font-size="13" font-weight="normal" line-spacing="23" fill="#000000">
                    <tspan x="340" y="42">A Division </tspan>
                    <tspan x="340" y="65">of UAV Factory</tspan>
                </text>
                <path d="M319.5,12.459392 L319.5,65.7293924" id="Line" stroke="#000000" stroke-linecap="square"></path>
                <g id="Page-1">
                    <path d="M110.811289,35.8013183 C113.278689,35.8013183 115.308089,34.9344433 116.941203,33.2399091 C118.573274,31.5464068 119.408603,29.3802513 119.408603,26.7796263 C119.408603,24.1810653 118.573274,22.0138778 116.941203,20.3203756 C115.308089,18.6258414 113.278689,17.7599984 110.811289,17.7599984 C108.343889,17.7599984 106.273817,18.6258414 104.641746,20.3203756 C103.009674,22.0138778 102.212931,24.1810653 102.212931,26.7796263 C102.212931,29.3802513 103.009674,31.5464068 104.641746,33.2399091 C106.273817,34.9344433 108.343889,35.8013183 110.811289,35.8013183 M100.461974,16.617581 C103.20886,13.8208771 106.671146,12.442133 110.811289,12.442133 C114.950389,12.442133 118.373046,13.8208771 121.119931,16.617581 C123.866817,19.375069 125.260074,22.7631055 125.260074,26.7796263 C125.260074,30.7579634 123.866817,34.1470318 121.119931,36.9416717 C118.373046,39.7394076 114.950389,41.1181516 110.811289,41.1181516 C106.671146,41.1181516 103.20886,39.7394076 100.461974,36.9416717 C97.7150886,34.1470318 96.3625029,30.7579634 96.3625029,26.7796263 C96.3625029,22.7631055 97.7150886,19.375069 100.461974,16.617581" id="Fill-1" fill="#1D1C1B"></path>
                    <path d="M133.782616,37.0993604 C130.915801,34.3821201 129.481873,30.9558999 129.481873,26.7794199 C129.481873,22.5657882 130.915801,19.139568 133.741944,16.4605115 C136.608759,13.7814549 140.230601,12.4419266 144.567844,12.4419266 C147.31473,12.4419266 149.74563,13.0342912 151.933544,14.1746446 L151.933544,19.8877637 C149.78213,18.4687719 147.354359,17.759792 144.608516,17.759792 C141.940887,17.759792 139.75193,18.626667 137.961344,20.3201692 C136.209344,22.0136714 135.333344,24.1416432 135.333344,26.7794199 C135.333344,29.4192607 136.248973,31.5854162 138.040601,33.2809824 C139.83223,34.9724207 142.100444,35.8011119 144.846287,35.8011119 C147.873701,35.8011119 150.420359,35.0137004 152.489387,33.3975978 L152.489387,39.1086528 C150.222216,40.4492131 147.595259,41.1189772 144.567844,41.1189772 C140.230601,41.1189772 136.647344,39.778417 133.782616,37.0993604" id="Fill-3" fill="#1D1C1B"></path>
                    <path d="M154.96002,12.9946626 L178.324191,12.9946626 L178.324191,18.0751693 L169.489106,18.0751693 L169.489106,40.5685116 L163.755477,40.5685116 L163.755477,18.0751693 L154.96002,18.0751693 L154.96002,12.9946626 Z" id="Fill-5" fill="#1D1C1B"></path>
                    <path d="M195.562203,35.8013183 C198.02856,35.8013183 200.059003,34.9344433 201.69316,33.2399091 C203.324189,31.5464068 204.161603,29.3802513 204.161603,26.7796263 C204.161603,24.1810653 203.324189,22.0138778 201.69316,20.3203756 C200.059003,18.6258414 198.02856,17.7599984 195.562203,17.7599984 C193.095846,17.7599984 191.025774,18.6258414 189.39266,20.3203756 C187.761631,22.0138778 186.964889,24.1810653 186.964889,26.7796263 C186.964889,29.3802513 187.761631,31.5464068 189.39266,33.2399091 C191.025774,34.9344433 193.095846,35.8013183 195.562203,35.8013183 M185.214974,16.617581 C187.960817,13.8208771 191.423103,12.442133 195.562203,12.442133 C199.703389,12.442133 203.125003,13.8208771 205.872931,16.617581 C208.618774,19.375069 210.010989,22.7631055 210.010989,26.7796263 C210.010989,30.7579634 208.618774,34.1470318 205.872931,36.9416717 C203.125003,39.7394076 199.703389,41.1181516 195.562203,41.1181516 C191.423103,41.1181516 187.960817,39.7394076 185.214974,36.9416717 C182.467046,34.1470318 181.113417,30.7579634 181.113417,26.7796263 C181.113417,22.7631055 182.467046,19.375069 185.214974,16.617581" id="Fill-7" fill="#1D1C1B"></path>
                    <path d="M220.920734,24.8112009 L226.970349,24.8112009 C229.720363,24.8112009 231.351391,23.5893199 231.351391,21.3849807 C231.351391,19.1775454 229.720363,17.9566964 226.970349,17.9566964 L220.920734,17.9566964 L220.920734,24.8112009 Z M215.189191,40.566654 L215.189191,12.994869 L227.371849,12.994869 C230.355463,12.994869 232.744649,13.7812485 234.455977,15.3189196 C236.204849,16.8534948 237.082934,18.8225394 237.082934,21.3055171 C237.082934,23.7874628 236.204849,25.7957232 234.455977,27.3302984 C232.744649,28.8679695 230.355463,29.655381 227.371849,29.655381 L220.920734,29.655381 L220.920734,40.566654 L215.189191,40.566654 Z" id="Fill-9" fill="#1D1C1B"></path>
                    <path d="M244.407441,37.927742 C242.178856,35.7987383 241.065084,32.8069876 241.065084,28.9855136 L241.065084,12.9947658 L246.755956,12.9947658 L246.755956,29.1836565 C246.755956,33.5562153 249.303656,35.7987383 252.96617,35.7987383 C256.66727,35.7987383 259.21497,33.5562153 259.21497,29.1836565 L259.21497,12.9947658 L264.946513,12.9947658 L264.946513,28.9855136 C264.946513,32.8069876 263.832741,35.7987383 261.563484,37.927742 C259.334899,40.0546818 256.469127,41.1186676 252.96617,41.1186676 C249.503884,41.1186676 246.638113,40.0546818 244.407441,37.927742" id="Fill-11" fill="#1D1C1B"></path>
                    <g id="Group-15">
                        <mask id="mask-2" fill="white">
                            <use xlink:href="#path-1"></use>
                        </mask>
                        <g id="Clip-14"></g>
                        <path d="M269.328077,38.1635527 L269.328077,32.2553868 C270.48252,33.2399091 271.998834,34.1067841 273.945849,34.8560118 C275.897034,35.5660237 277.807549,35.9179336 279.677391,35.9179336 C282.703763,35.9179336 285.052277,34.815764 285.052277,32.72804 C285.052277,31.7424857 284.573606,30.8766427 283.618349,30.4452692 C283.101091,30.128447 282.823691,30.0107997 282.025906,29.7352573 L281.070649,29.4184351 L278.842063,28.748671 L276.773034,28.0799388 C276.375706,27.9622915 275.737477,27.7259649 274.901106,27.4101747 C274.065777,27.0954165 273.469263,26.8198741 273.11052,26.5825155 C272.354449,26.0706464 271.001863,25.1263719 270.48252,24.1810653 C270.005934,23.2347268 269.527263,21.8962305 269.527263,20.3203756 C269.527263,17.8786777 270.48252,15.9478168 272.354449,14.5690728 C274.226377,13.1521449 276.81162,12.442133 280.03822,12.442133 C283.261691,12.442133 286.325606,13.1903287 289.150706,14.7259359 L289.150706,20.241944 C286.325606,18.509226 283.300277,17.641319 280.115391,17.641319 C276.97222,17.641319 275.379777,18.5484418 275.379777,20.3595914 C275.379777,21.2656821 275.937706,21.816767 276.852291,22.2502045 C277.369549,22.5257469 278.363391,22.8807528 279.121549,23.0768317 C279.876577,23.2739426 281.310506,23.6691963 282.145834,23.9437067 C284.814506,24.7713659 286.325606,25.5195616 288.195449,26.8198741 C290.069463,28.1191546 290.984049,30.0500155 290.984049,32.5711769 C290.984049,35.2089537 289.946406,37.2966777 287.838791,38.8333168 C285.729091,40.3709879 283.101091,41.1181516 279.917249,41.1181516 C275.737477,41.1181516 272.195934,40.1325973 269.328077,38.1635527" id="Fill-13" fill="#1D1C1B" mask="url(#mask-2)"></path>
                    </g>
                    <mask id="mask-4" fill="white">
                        <use xlink:href="#path-3"></use>
                    </mask>
                    <g id="Clip-17"></g>
                    <path d="M98.4936857,57.0981667 L99.4333,57.0981667 L99.4333,65.8938519 L98.4936857,65.8938519 L98.4936857,57.0981667 Z" id="Fill-16" fill="#124F6E" mask="url(#mask-4)"></path>
                    <path d="M112.267639,65.1163476 L112.267639,64.0719696 C112.609696,64.360928 113.06751,64.6240865 113.652553,64.8521571 C114.249067,65.0657799 114.857053,65.1792993 115.493196,65.1792993 C116.87811,65.1792993 117.893853,64.537399 117.893853,63.5198528 C117.957467,62.965672 117.536153,62.5528744 117.15551,62.3268677 C117.055396,62.2525641 116.87811,62.1638126 116.62261,62.0750612 L116.064681,61.8851743 C115.93641,61.8469905 115.708024,61.7726869 115.392039,61.6839354 C114.997839,61.5724801 114.679767,61.4826966 114.452424,61.409425 C114.221953,61.3330574 113.956024,61.231922 113.664024,61.0936348 C113.370981,60.9563796 113.157196,60.8046765 113.003896,60.6560693 C112.699381,60.3392472 112.443881,59.8376981 112.443881,59.2226296 C112.443881,58.5559615 112.711896,58.0151966 113.25731,57.587951 C113.80481,57.1607055 114.552539,56.9470827 115.519267,56.9470827 C116.57151,56.9470827 117.499653,57.1844414 118.28701,57.6767025 L118.28701,58.630265 C117.409967,58.0895001 116.496424,57.8160217 115.544296,57.8160217 C114.120796,57.8160217 113.397053,58.4424421 113.397053,59.2484295 C113.334481,59.6859949 113.690096,60.026553 113.967496,60.2401757 C114.04571,60.3031274 114.185453,60.365047 114.38881,60.4403826 L114.820553,60.6055016 L115.36701,60.7561728 L115.898867,60.9058119 C116.268039,61.0182993 116.558996,61.1049868 116.774867,61.1813543 C116.991781,61.2587539 117.25771,61.3712412 117.54971,61.5229443 C117.84171,61.6715515 118.070096,61.8346065 118.234867,61.9986936 C118.57901,62.3144838 118.858496,62.8666006 118.858496,63.5074689 C118.858496,64.3000403 118.540424,64.9171728 117.893853,65.3681542 C117.25771,65.8201676 116.482867,66.0472062 115.55681,66.0472062 C114.23551,66.0472062 112.990339,65.6560805 112.267639,65.1163476" id="Fill-18" fill="#124F6E" mask="url(#mask-4)"></path>
                    <path d="M132.744347,61.093222 L135.727961,61.093222 C136.948104,61.093222 137.646819,60.5287213 137.646819,59.5235591 C137.646819,58.5194289 136.934547,57.9384162 135.727961,57.9384162 L132.744347,57.9384162 L132.744347,61.093222 Z M131.804733,65.8940583 L131.804733,57.0983731 L135.779061,57.0983731 C137.51959,57.0983731 138.58539,58.0395516 138.58539,59.4864073 C138.58539,60.7278961 137.81159,61.6350189 136.492376,61.8465777 L139.360233,65.8940583 L138.255847,65.8940583 L135.462033,61.9332652 L132.744347,61.9332652 L132.744347,65.8940583 L131.804733,65.8940583 Z" id="Fill-19" fill="#124F6E" mask="url(#mask-4)"></path>
                    <path d="M165.686014,65.1163476 L165.686014,64.0719696 C166.028071,64.360928 166.486929,64.6240865 167.070929,64.8521571 C167.667443,65.0657799 168.276471,65.1792993 168.9147,65.1792993 C170.297529,65.1792993 171.313271,64.537399 171.313271,63.5198528 C171.3748,62.965672 170.957657,62.5528744 170.575971,62.3268677 C170.474814,62.2525641 170.297529,62.1638126 170.043071,62.0750612 L169.483057,61.8851743 C169.356871,61.8469905 169.128486,61.7726869 168.8125,61.6839354 C168.417257,61.5724801 168.099186,61.4826966 167.873929,61.409425 C167.643457,61.3330574 167.376486,61.231922 167.083443,61.0936348 C166.792486,60.9563796 166.577657,60.8046765 166.423314,60.6560693 C166.119843,60.3392472 165.8633,59.8376981 165.8633,59.2226296 C165.8633,58.5559615 166.132357,58.0151966 166.677771,57.587951 C167.224229,57.1607055 167.973,56.9470827 168.938686,56.9470827 C169.991971,56.9470827 170.919071,57.1844414 171.706429,57.6767025 L171.706429,58.630265 C170.831471,58.0895001 169.916886,57.8160217 168.963714,57.8160217 C167.541257,57.8160217 166.816471,58.4424421 166.816471,59.2484295 C166.752857,59.6859949 167.109514,60.026553 167.386914,60.2401757 C167.464086,60.3031274 167.602786,60.365047 167.806143,60.4403826 L168.239971,60.6055016 L168.786429,60.7561728 L169.319329,60.9058119 C169.686414,61.0182993 169.979457,61.1049868 170.195329,61.1813543 C170.4112,61.2587539 170.678171,61.3712412 170.969129,61.5229443 C171.261129,61.6715515 171.490557,61.8346065 171.656371,61.9986936 C172.000514,62.3144838 172.276871,62.8666006 172.276871,63.5074689 C172.276871,64.3000403 171.961929,64.9171728 171.313271,65.3681542 C170.678171,65.8201676 169.904371,66.0472062 168.977271,66.0472062 C167.655971,66.0472062 166.4108,65.6560805 165.686014,65.1163476" id="Fill-20" fill="#124F6E" mask="url(#mask-4)"></path>
                    <path d="M187.712304,65.8943679 L187.712304,61.8613352 L184.259404,57.0986827 L185.351276,57.0986827 L188.195147,60.9944602 L191.042147,57.0986827 L192.105861,57.0986827 L188.650876,61.8468873 L188.650876,65.8943679 L187.712304,65.8943679 Z" id="Fill-21" fill="#124F6E" mask="url(#mask-4)"></path>
                    <path d="M203.923414,65.1163476 L203.923414,64.0719696 C204.265471,64.360928 204.722243,64.6240865 205.306243,64.8521571 C205.902757,65.0657799 206.513871,65.1792993 207.147929,65.1792993 C208.532843,65.1792993 209.549629,64.537399 209.549629,63.5198528 C209.6122,62.965672 209.192971,62.5528744 208.811286,62.3268677 C208.710129,62.2525641 208.532843,62.1638126 208.278386,62.0750612 L207.720457,61.8851743 C207.594271,61.8469905 207.3638,61.7726869 207.047814,61.6839354 C206.654657,61.5724801 206.336586,61.4826966 206.107157,61.409425 C205.878771,61.3330574 205.6118,61.231922 205.318757,61.0936348 C205.029886,60.9563796 204.814014,60.8046765 204.658629,60.6560693 C204.355157,60.3392472 204.1007,59.8376981 204.1007,59.2226296 C204.1007,58.5559615 204.367671,58.0151966 204.913086,57.587951 C205.459543,57.1607055 206.206229,56.9470827 207.174,56.9470827 C208.229371,56.9470827 209.156471,57.1844414 209.941743,57.6767025 L209.941743,58.630265 C209.066786,58.0895001 208.154286,57.8160217 207.199029,57.8160217 C205.776571,57.8160217 205.051786,58.4424421 205.051786,59.2484295 C204.988171,59.6859949 205.344829,60.026553 205.624314,60.2401757 C205.6994,60.3031274 205.8381,60.365047 206.043543,60.4403826 L206.475286,60.6055016 L207.021743,60.7561728 L207.554643,60.9058119 C207.923814,61.0182993 208.216857,61.1049868 208.430643,61.1813543 C208.646514,61.2587539 208.915571,61.3712412 209.206529,61.5229443 C209.498529,61.6715515 209.725871,61.8346065 209.893771,61.9986936 C210.235829,62.3144838 210.514271,62.8666006 210.514271,63.5074689 C210.514271,64.3000403 210.197243,64.9171728 209.549629,65.3681542 C208.915571,65.8201676 208.139686,66.0472062 207.212586,66.0472062 C205.893371,66.0472062 204.646114,65.6560805 203.923414,65.1163476" id="Fill-22" fill="#124F6E" mask="url(#mask-4)"></path>
                    <path d="M225.721631,65.8943679 L225.721631,57.9387258 L222.657717,57.9387258 L222.657717,57.0986827 L229.758531,57.0986827 L229.758531,57.9387258 L226.662289,57.9387258 L226.662289,65.8943679 L225.721631,65.8943679 Z" id="Fill-23" fill="#124F6E" mask="url(#mask-4)"></path>
                    <path d="M242.37679,65.8943679 L242.37679,57.0986827 L248.471247,57.0986827 L248.471247,57.9387258 L243.315361,57.9387258 L243.315361,60.7560696 L247.544147,60.7560696 L247.544147,61.5971447 L243.315361,61.5971447 L243.315361,65.0543248 L248.660004,65.0543248 L248.660004,65.8943679 L242.37679,65.8943679 Z" id="Fill-24" fill="#124F6E" mask="url(#mask-4)"></path>
                    <path d="M261.419049,65.8943679 L261.419049,57.0986827 L262.346149,57.0986827 L265.558149,61.3587541 L268.772234,57.0986827 L269.68682,57.0986827 L269.68682,65.8943679 L268.75972,65.8943679 L268.75972,58.5052906 L265.851191,62.3505004 L265.280749,62.3505004 L262.346149,58.5052906 L262.346149,65.8943679 L261.419049,65.8943679 Z" id="Fill-25" fill="#124F6E" mask="url(#mask-4)"></path>
                    <path d="M282.453477,65.1163476 L282.453477,64.0719696 C282.795534,64.360928 283.253349,64.6240865 283.838391,64.8521571 C284.434906,65.0657799 285.041849,65.1792993 285.677991,65.1792993 C287.064991,65.1792993 288.079691,64.537399 288.079691,63.5198528 C288.142263,62.965672 287.72512,62.5528744 287.343434,62.3268677 C287.240191,62.2525641 287.064991,62.1638126 286.810534,62.0750612 L286.25052,61.8851743 C286.124334,61.8469905 285.895949,61.7726869 285.577877,61.6839354 C285.18472,61.5724801 284.865606,61.4826966 284.639306,61.409425 C284.408834,61.3330574 284.141863,61.231922 283.84882,61.0936348 C283.558906,60.9563796 283.341991,60.8046765 283.188691,60.6560693 C282.88522,60.3392472 282.630763,59.8376981 282.630763,59.2226296 C282.630763,58.5559615 282.895649,58.0151966 283.443149,57.587951 C283.989606,57.1607055 284.738377,56.9470827 285.704063,56.9470827 C286.757349,56.9470827 287.685491,57.1844414 288.473891,57.6767025 L288.473891,58.630265 C287.598934,58.0895001 286.684349,57.8160217 285.730134,57.8160217 C284.306634,57.8160217 283.581849,58.4424421 283.581849,59.2484295 C283.52032,59.6859949 283.874891,60.026553 284.154377,60.2401757 C284.231549,60.3031274 284.372334,60.365047 284.573606,60.4403826 L285.005349,60.6055016 L285.551806,60.7561728 L286.084706,60.9058119 C286.453877,61.0182993 286.744834,61.1049868 286.960706,61.1813543 C287.176577,61.2587539 287.443549,61.3712412 287.734506,61.5229443 C288.028591,61.6715515 288.255934,61.8346065 288.421749,61.9986936 C288.765891,62.3144838 289.044334,62.8666006 289.044334,63.5074689 C289.044334,64.3000403 288.727306,64.9171728 288.079691,65.3681542 C287.443549,65.8201676 286.669749,66.0472062 285.742649,66.0472062 C284.423434,66.0472062 283.176177,65.6560805 282.453477,65.1163476" id="Fill-26" fill="#124F6E" mask="url(#mask-4)"></path>
                    <path d="M36.2219743,40.0895632 C34.8381029,41.0039099 33.3582886,41.7005059 31.8315457,42.2092789 C31.88056,42.2598467 31.9285314,42.3135103 31.9692029,42.374398 C32.1496171,42.6458124 32.2028029,42.9708906 32.1172886,43.2877127 C32.0223886,43.6468467 31.7575029,43.9585089 31.39146,44.1442678 C31.1536886,44.2639791 30.8992314,44.3197068 30.6520743,44.3197068 C30.1838314,44.3197068 29.74166,44.1153719 29.4924171,43.7428221 C29.3140886,43.4765676 29.2629886,43.1618094 29.34016,42.8501472 C27.6622029,43.1649054 25.9560886,43.2505609 24.2697886,43.1102097 C24.2770886,43.1380736 24.2906457,43.1638734 24.29586,43.1917373 C24.3928457,43.6468467 24.2916886,44.106084 24.0101171,44.4837938 C23.6868314,44.9203273 23.1539314,45.2010297 22.5501171,45.2588214 C22.47086,45.2681093 22.3916029,45.2722373 22.3133886,45.2722373 C21.2726171,45.2722373 20.3507314,44.6158891 20.15676,43.7025743 C20.0608171,43.247465 20.1619743,42.7882276 20.4435457,42.4115498 C20.44876,42.4043258 20.45606,42.3981339 20.4623171,42.3909099 C18.6706886,41.860465 16.9551886,41.0658295 15.3867314,39.9966837 C15.3439743,40.0895632 15.3043457,40.1845066 15.2459457,40.2722261 C14.9581171,40.6994717 14.4961314,40.987398 13.9475886,41.0802775 C13.8141029,41.1040133 13.6774886,41.1143333 13.5398314,41.1143333 C12.9193314,41.1143333 12.2685886,40.8883266 11.7012743,40.468305 C10.45506,39.5415743 10.0201886,38.0100952 10.7147314,36.9822291 C10.9014029,36.7056547 11.16316,36.4971919 11.4687171,36.3516807 C11.4363886,36.312465 11.4009314,36.2784092 11.3696457,36.2381614 C10.4738314,35.0162804 9.75947429,33.6581763 9.26620286,32.1999687 C8.92518857,32.4466153 8.53307429,32.5962544 8.11801714,32.6137983 C8.08673143,32.6148303 8.05440286,32.6168943 8.02103143,32.6168943 C6.65593143,32.6168943 5.46290286,31.3279337 5.28353143,29.6354635 C5.18237429,28.673645 5.43683143,27.7603303 5.98433143,27.1328779 C6.39208857,26.6622886 6.94063143,26.3898422 7.52671714,26.3630103 L7.52776,26.3630103 C7.88024571,26.3454664 8.21813143,26.41461 8.53307429,26.5508333 C8.67281714,24.7582596 9.20363143,23.0565014 10.0128886,21.4971584 C9.93571714,21.4878705 9.85646,21.4899344 9.78033143,21.4754865 C9.03677429,21.3330714 8.41731714,20.9068578 8.03563143,20.2732135 C7.18987429,18.8717656 7.74780286,16.7943615 9.27767429,15.6447202 C10.1109171,15.0162358 11.1110171,14.7561733 12.00996,14.9274843 C12.7535171,15.0688675 13.3719314,15.494049 13.7536171,16.1276934 L13.75466,16.1276934 C13.84226,16.2721725 13.9048314,16.4269717 13.9642743,16.5828028 C15.4868457,15.2814583 17.1992171,14.2670081 18.93036,13.6220118 C18.8949029,13.5301644 18.8490171,13.4434769 18.82086,13.3485334 C18.5778743,12.5105542 18.6946743,11.6343913 19.1556171,10.8851636 C19.6666171,10.0502804 20.55826,9.45172388 21.6052886,9.2411971 C23.6253029,8.83252746 25.7026743,9.96565692 26.2282743,11.7644225 C26.3669743,12.2453318 26.3742743,12.7365609 26.2793743,13.2102462 C28.5840886,13.7819709 30.3569457,14.973924 31.7960886,16.5693868 C32.43536,16.2566926 33.1705743,16.1689731 33.9120457,16.3485401 C35.0790029,16.6354344 36.1395886,17.5023094 36.8247457,18.7293504 C37.9698029,20.7840505 37.68406,23.2515483 36.2407457,24.4352455 C37.19496,26.7520721 38.0886886,29.1679702 39.14406,31.4352611 C39.4600457,31.0771592 39.83026,30.763433 40.2588743,30.5167864 C41.4779743,29.8129664 42.9442314,29.713895 44.3885886,30.230924 C45.7974886,30.7355691 47.0228457,31.7758191 47.8362743,33.1566272 C49.5371743,36.0441465 48.9031171,39.5539583 46.4263314,40.984302 C46.2970171,41.0575736 46.1635314,41.1174292 46.0290029,41.1783169 C48.2367314,43.2588169 50.7385457,44.8945275 53.5417457,45.9853452 C53.51046,45.669555 53.5146314,45.3506688 53.5605171,45.0266227 C53.9171743,42.4559255 56.6922171,40.7056636 59.7467457,41.1174292 C62.7971029,41.5343548 64.9902314,43.9647008 64.6325314,46.53643 C64.5887314,46.8584121 64.5021743,47.1649144 64.3853743,47.4590327 C66.9476743,47.2412819 69.3900457,46.6138295 71.6478314,45.6406592 C71.4434314,45.4693481 71.25676,45.2773972 71.0919886,45.0637745 C70.38806,44.1514917 70.1565457,42.9781145 70.4381171,41.7603615 C70.70926,40.5828563 71.4371743,39.4961666 72.4862886,38.7066911 C73.5333171,37.9182477 74.7764029,37.512674 76.0048886,37.5663377 C77.2657029,37.6220654 78.3461029,38.1566383 79.0479457,39.0689211 C79.2732029,39.3620074 79.4452743,39.6819255 79.5725029,40.0224836 C81.1242743,38.3341413 82.4236743,36.4146324 83.4175171,34.3258764 C83.2152029,34.3650922 83.0108029,34.38986 82.8074457,34.38986 C82.5248314,34.38986 82.2411743,34.3537403 81.9648171,34.2784047 C80.0292743,33.7531197 78.9561743,31.5075007 79.5745886,29.2722016 C80.1940457,27.0379344 82.2703743,25.6437105 84.20696,26.1679635 C84.7012743,26.3021227 85.1382314,26.5518653 85.50636,26.8841673 C85.5856171,26.1101718 85.6262886,25.3268883 85.6262886,24.5322529 C85.6262886,23.5683705 85.5595457,22.6199679 85.4437886,21.6860133 C85.1517886,21.9037641 84.8285029,22.084363 84.46246,22.1834344 C84.2048743,22.2505141 83.9431171,22.2866339 83.6803171,22.2866339 C83.03896,22.2866339 82.39656,22.081267 81.8146457,21.6787894 C81.0283314,21.1369925 80.4453743,20.2959173 80.1742314,19.314491 C79.6048314,17.2453429 80.5976314,15.1689709 82.3903029,14.6829017 C82.7062886,14.5972462 83.0233171,14.5858943 83.3393029,14.6044702 C82.6478886,13.1885743 81.8177743,11.85627 80.8573029,10.6251011 C80.7092171,10.990427 80.4964743,11.3247931 80.20656,11.6054955 C79.6434171,12.1462603 78.8967314,12.4104508 78.1145886,12.4104508 C77.1207457,12.4104508 76.0695457,11.9852693 75.2592457,11.158642 C73.81176,9.68289055 73.6751457,7.48164725 74.9547314,6.25151034 C75.1664314,6.04820751 75.4146314,5.8954724 75.6743029,5.76647314 C74.2747886,4.81187865 72.7636886,4.00589129 71.16186,3.36605499 C71.21296,3.72415692 71.2004457,4.08535484 71.1003314,4.43726481 C70.7447171,5.69423356 69.4734743,6.49506094 68.0332886,6.49506094 C67.6828886,6.49506094 67.3210171,6.44758921 66.9612314,6.34851778 C65.1237171,5.83664874 63.9901314,4.14830647 64.43126,2.58586749 C64.5126029,2.30000513 64.6533886,2.04819859 64.81816,1.81599993 C64.62836,1.79536004 64.4406457,1.77265618 64.2498029,1.75717626 C62.54056,1.73137641 60.8646886,1.92126332 59.2493029,2.30413311 C59.3160457,2.40836451 59.3786171,2.5136279 59.4265886,2.63230722 C59.8666743,3.75098876 59.1690029,5.07090915 57.8696029,5.57452225 L57.86856,5.57452225 C57.5244171,5.70764948 57.1729743,5.77163311 56.8330029,5.77163311 C55.8871314,5.77163311 55.0319886,5.28246793 54.70766,4.45996868 C54.6523886,4.32168147 54.6169314,4.18236228 54.5960743,4.04097909 C52.43006,5.17926853 50.48096,6.71693966 48.8707886,8.60858475 C48.5662743,8.96462269 49.0115743,9.47442775 49.4036886,9.21539725 C57.3398314,3.97493147 68.3263314,5.45687493 74.2581029,13.067831 C76.06016,15.5291368 77.1353457,18.5425594 77.1353457,21.8036606 C77.1353457,29.9079099 70.49756,36.477584 62.6740457,36.477584 C51.0347171,35.5828452 50.1180457,24.0884955 45.2802314,15.5084969 C40.5195886,7.06472165 33.18726,1.66532879 23.25926,1.75614427 C10.4123029,1.75614427 0.000417142857,12.0606048 0.000417142857,24.7716755 C0.000417142857,36.8666458 9.39968857,46.6117656 21.3789886,47.5488161 C27.3556029,47.6458236 32.9807743,45.1318861 36.7548743,40.6974077 C37.0604314,40.3413697 36.6161743,39.8295007 36.2219743,40.0895632" id="Fill-27" fill="#276E9D" mask="url(#mask-4)"></path>
                    <path d="M85.4441014,21.6864261 C85.1500157,21.9052089 84.8288157,22.0827118 84.4627729,22.1838472 C84.2051871,22.2529908 83.94343,22.2870467 83.68063,22.2870467 C83.0392729,22.2870467 82.3968729,22.0796158 81.8149586,21.6781702 C81.7565586,21.6389544 81.7065014,21.5852907 81.65123,21.540915 C81.7200586,21.9980883 81.7857586,22.4717736 81.8452014,22.9764187 C81.9849443,24.1766278 82.0141443,25.3045972 81.9588729,26.3747751 C82.6648871,26.0548569 83.4459871,25.9630094 84.20623,26.1683763 C84.7015871,26.3025355 85.1385443,26.5522781 85.5066729,26.8835481 C85.58593,26.1095526 85.6266014,25.3262691 85.6266014,24.5326657 C85.6266014,23.5677513 85.5598586,22.6172847 85.4441014,21.6864261" id="Fill-28" fill="#124F6E" mask="url(#mask-4)"></path>
                    <path d="M59.4260671,2.63086243 C59.5668529,2.99309234 59.58041,3.37183415 59.5042814,3.73922403 C59.52201,3.73612805 59.5397386,3.73096808 59.5574671,3.7268401 C61.1947529,3.39453802 62.8090957,3.33158638 64.36191,3.48638549 C64.3358386,3.18710722 64.34731,2.88370097 64.4317814,2.58442269 C64.5120814,2.30062433 64.65391,2.04881778 64.8186814,1.81455513 C64.6288814,1.79494725 64.4401243,1.77224338 64.2492814,1.75676347 C62.5410814,1.72993162 60.8641671,1.92188251 59.2487814,2.30372031 C59.3165671,2.40795171 59.3791386,2.5142471 59.4260671,2.63086243" id="Fill-29" fill="#124F6E" mask="url(#mask-4)"></path>
                    <path d="M82.8069243,34.38986 C82.52431,34.38986 82.2416957,34.3537403 81.9632529,34.2794367 C81.2040529,34.0720059 80.5845957,33.5952246 80.1403386,32.9626123 C79.21011,34.6654025 77.9576386,36.1927536 76.4350671,37.6065855 C77.5102529,37.7520967 78.4269243,38.2608697 79.0484671,39.0689211 C79.2737243,39.3620074 79.4447529,39.6819255 79.5719814,40.0224836 C81.1247957,38.3341413 82.4231529,36.4146324 83.4169957,34.3258764 C83.2146814,34.3650922 83.0102814,34.38986 82.8069243,34.38986" id="Fill-30" fill="#124F6E" mask="url(#mask-4)"></path>
                    <path d="M64.38527,47.4586199 C66.9465271,47.2408691 69.3899414,46.6144487 71.6477271,45.6402464 C71.4433271,45.4689353 71.2556129,45.2780164 71.0918843,45.0643937 C70.3879557,44.1510789 70.1564414,42.9777017 70.4380129,41.7609807 C70.4567843,41.6773892 70.49537,41.5989577 70.5183129,41.5184621 C68.4784843,42.403913 66.1612557,43.0592292 63.7439129,43.3564435 C64.4447129,44.2800782 64.7919843,45.3935998 64.6324271,46.5349852 C64.5875843,46.8579993 64.50207,47.1645016 64.38527,47.4586199" id="Fill-31" fill="#124F6E" mask="url(#mask-4)"></path>
                    <path d="M83.33899,14.6036446 C82.6475757,13.1887807 81.8174614,11.8564764 80.8580329,10.6253075 C80.7089043,10.9906334 80.4961614,11.3270635 80.20729,11.6046699 C79.6431043,12.1464667 78.8964186,12.4106572 78.1142757,12.4106572 C78.0673471,12.4106572 78.0193757,12.3972413 77.9724471,12.3962093 C78.9412614,13.6779459 79.7317471,14.9276907 80.3616329,16.4973536 C80.7558329,15.6160307 81.46289,14.9338827 82.38999,14.6831081 C82.7059757,14.5974526 83.0230043,14.5850687 83.33899,14.6036446" id="Fill-32" fill="#124F6E" mask="url(#mask-4)"></path>
                    <path d="M53.5594743,45.0267259 C53.6908743,44.0814193 54.1518171,43.2486001 54.8307171,42.5912199 C53.7993314,42.2475659 52.7940171,41.8038085 51.8335457,41.2465317 C50.5664743,40.5107199 49.4214171,39.6572609 48.3670886,38.7346582 C47.97706,39.6727408 47.3242314,40.4663442 46.4263314,40.9844052 C46.29806,41.0597408 46.1624886,41.1175324 46.0290029,41.1784201 C48.2367314,43.2589201 50.7395886,44.8946307 53.5427886,45.9864804 C53.51046,45.6717222 53.5146314,45.350772 53.5594743,45.0267259" id="Fill-33" fill="#124F6E" mask="url(#mask-4)"></path>
                    <path d="M70.5797371,5.3912401 C71.8906086,6.08990007 73.08468,6.93819918 74.12128,7.89485766 C74.2182657,7.27359725 74.4904514,6.69877656 74.9545229,6.25192314 C75.1662229,6.04862031 75.4144229,5.8948532 75.6751371,5.76688594 C74.2756229,4.81125945 72.76348,4.00320811 71.1616514,3.36646778 C71.2127514,3.72353772 71.2002371,4.08370365 71.1001229,4.43664561 C70.9979229,4.79681153 70.81438,5.1146657 70.5797371,5.3912401" id="Fill-34" fill="#124F6E" mask="url(#mask-4)"></path>
                    <path d="M55.16756,5.13427359 C54.9725457,4.94438668 54.8109029,4.72147597 54.70766,4.45934948 C54.6523886,4.32209427 54.6158886,4.18071109 54.5950314,4.0393279 C52.43006,5.17864933 50.48096,6.71632046 48.8707886,8.60693356 C48.73626,8.76482865 48.7529457,8.94852359 48.8405457,9.08577879 C49.6393743,8.39021481 51.9294886,6.54604144 55.16756,5.13427359" id="Fill-35" fill="#124F6E" mask="url(#mask-4)"></path>
                    <path d="M29.4923129,43.7428221 C29.31607,43.4765676 29.2618414,43.1607775 29.3390129,42.8501472 C27.6620986,43.1628414 25.9559843,43.2484969 24.2696843,43.1102097 C24.2769843,43.1380736 24.2905414,43.1628414 24.2967986,43.1917373 C24.3927414,43.6468467 24.2915843,44.106084 24.0100129,44.4837938 C23.9463986,44.5694493 23.8681843,44.6447849 23.7878843,44.7190885 C25.6754557,44.8243519 27.6568843,44.6096971 29.6967129,43.9729568 C29.6205843,43.9038132 29.54967,43.8284776 29.4923129,43.7428221" id="Fill-36" fill="#124F6E" mask="url(#mask-4)"></path>
                    <path d="M12.0097514,14.9270715 C12.7533086,15.0694867 13.3717229,15.4957002 13.7534086,16.1272806 L13.7544514,16.1272806 C13.8420514,16.2727917 13.9046229,16.4265589 13.9640657,16.58239 C15.4866371,15.2810455 17.1990086,14.2665953 18.9301514,13.621599 C18.8946943,13.5297516 18.8488086,13.4440961 18.8216943,13.3491526 C18.5776657,12.5101414 18.6955086,11.6350105 19.1554086,10.8847508 C19.2576086,10.7175678 19.38588,10.5658647 19.51728,10.4193215 C15.5627657,11.2542047 12.8419514,12.8692754 10.8709514,14.9477114 C11.2547229,14.8765038 11.64058,14.8558639 12.0097514,14.9270715" id="Fill-37" fill="#124F6E" mask="url(#mask-4)"></path>
                    <path d="M5.98474857,27.1326715 C6.39250571,26.6620822 6.94104857,26.3896358 7.52713429,26.3628039 L7.52817714,26.3628039 C7.87857714,26.34526 8.21854857,26.4154356 8.53244857,26.5506269 C8.67323429,24.7580532 9.20404857,23.056295 10.0122629,21.496952 C9.93613429,21.4876641 9.85583429,21.4897281 9.78074857,21.4752801 C9.03719143,21.3349289 8.41669143,20.9066514 8.03396286,20.2740391 C7.91090571,20.0676403 7.82643429,19.8447295 7.76073429,19.6145949 C7.29979143,20.5857013 6.89412,21.5898315 6.52390571,22.6125376 C5.99413429,24.0779691 5.78452,25.6827199 5.85126286,27.3287504 C5.89714857,27.2657987 5.93260571,27.1914952 5.98474857,27.1326715" id="Fill-38" fill="#124F6E" mask="url(#mask-4)"></path>
                    <path d="M36.2219743,40.0895632 C34.8381029,41.0039099 33.3582886,41.7005059 31.8315457,42.2082469 C31.88056,42.2598467 31.9285314,42.3135103 31.9692029,42.374398 C32.0964314,42.5653169 32.1569171,42.7810036 32.1537886,43.0049464 C33.6450743,42.2939025 35.1613886,41.3465319 36.6902171,40.112267 C36.56716,40.0131956 36.3909171,39.9791398 36.2219743,40.0895632" id="Fill-39" fill="#124F6E" mask="url(#mask-4)"></path>
                    <path d="M20.4620043,42.3913227 C18.6703757,41.8577818 16.9548757,41.0662423 15.3874614,39.9970965 C15.3447043,40.089976 15.3040329,40.1838874 15.2466757,40.2695429 C14.9578043,40.6988525 14.4968614,40.9878108 13.9483186,41.0796583 C13.8544614,41.0961702 13.7574757,41.0992661 13.6615329,41.1044261 C15.6106329,42.4088666 17.8663329,43.5327081 20.3420757,44.1756404 C20.2607329,44.0270333 20.19399,43.8701702 20.15749,43.7019551 C20.0605043,43.2468458 20.1616614,42.7886404 20.4432329,42.4109306 C20.4484471,42.4047386 20.45679,42.3985467 20.4620043,42.3913227" id="Fill-40" fill="#124F6E" mask="url(#mask-4)"></path>
                    <path d="M26.2273357,11.7635969 C26.3670786,12.2455382 26.3743786,12.7347033 26.2805214,13.2083886 C28.5841929,13.7821773 30.3580929,14.9741304 31.7961929,16.5695932 C32.4365071,16.256899 33.1706786,16.1702115 33.9111071,16.3477145 C34.6254643,16.5231535 35.2981071,16.9173752 35.8695929,17.476716 C33.38655,13.8781528 29.6833643,10.5520359 24.9581786,9.99475915 C25.5567786,10.4457406 26.0187643,11.0473931 26.2273357,11.7635969" id="Fill-41" fill="#124F6E" mask="url(#mask-4)"></path>
                    <path d="M8.02155286,32.6151399 C7.60441,32.6151399 7.20708143,32.4830446 6.84625286,32.2673579 C7.62631,34.4428013 8.83915286,36.5181414 10.39301,38.2673713 C10.3585957,37.8071019 10.45871,37.3602485 10.71421,36.9825387 C10.9008814,36.7049323 11.1626386,36.4964695 11.4681957,36.3519903 C11.43691,36.3117426 11.40041,36.2776868 11.3691243,36.236407 C10.4743529,35.015558 9.75999571,33.6564219 9.26568143,32.2002783 C8.92571,32.4479568 8.53255286,32.595532 8.11853857,32.6141079 C8.08621,32.6151399 8.05388143,32.6151399 8.02155286,32.6151399" id="Fill-42" fill="#124F6E" mask="url(#mask-4)"></path>
                    <path d="M36.24085,24.4357615 C37.1950643,26.7515561 38.0887929,29.1674542 39.1441643,31.4347451 C39.46015,31.0776751 39.8293214,30.764981 40.2589786,30.5173024 C40.7126214,30.2551759 41.2027643,30.0776729 41.7116786,29.9827295 C40.4341786,27.5358716 39.4997786,25.1385494 38.7927214,23.132353 C38.4225071,22.081783 37.9031643,20.9084058 37.2451214,19.7092287 C37.8478929,21.5224423 37.45995,23.4326632 36.24085,24.4357615" id="Fill-43" fill="#124F6E" mask="url(#mask-4)"></path>
                    <path d="M73.1732186,39.5332152 C71.2251614,41.0007107 70.65159,43.4919443 71.8873757,45.0946311 C73.1221186,46.7004138 75.7000614,46.8149652 77.64499,45.3495336 C79.5899186,43.8830701 80.1676614,41.3939004 78.92979,39.7881177 C77.69609,38.182335 75.1181471,38.0688156 73.1732186,39.5332152" id="Fill-44" fill="#276E9D" mask="url(#mask-4)"></path>
                    <path d="M84.4735143,26.8675522 C82.8414429,26.4248268 81.0831857,27.6384518 80.5471571,29.5755046 C80.0111286,31.5115254 80.9006857,33.4392903 82.5348429,33.8830478 C84.1669143,34.3257732 85.9241286,33.1121482 86.4591143,31.1750954 C86.9961857,29.2390746 86.1055857,27.3102777 84.4735143,26.8675522" id="Fill-45" fill="#276E9D" mask="url(#mask-4)"></path>
                    <path d="M84.8131729,21.634104 C86.3044586,21.2305943 87.1158014,19.4700125 86.6277443,17.7032387 C86.1386443,15.9344009 84.53473,14.8270713 83.0434443,15.2316129 C81.5532014,15.6361546 80.7418586,17.3957045 81.2299157,19.1624783 C81.7190157,20.9302841 83.3218871,22.0386457 84.8131729,21.634104" id="Fill-46" fill="#276E9D" mask="url(#mask-4)"></path>
                    <path d="M79.8255,6.64800246 C78.5354857,5.33427403 76.5905571,5.12993921 75.4830429,6.19598906 C74.3734429,7.26100692 74.5225714,9.19083579 75.8125857,10.5055962 C77.1026,11.8213886 79.0464857,12.0236594 80.1560857,10.9586416 C81.2646429,9.89259174 81.1165571,7.96276287 79.8255,6.64800246" id="Fill-47" fill="#276E9D" mask="url(#mask-4)"></path>
                    <path d="M68.5913214,0.71599747 C66.9394357,0.257792113 65.28755,0.991539881 64.90065,2.35377202 C64.5147929,3.71703616 65.5399214,5.19278765 67.1907643,5.65099301 C68.8436929,6.11023036 70.4955786,5.37854658 70.8814357,4.01425045 C71.2683357,2.64995432 70.2411214,1.17420283 68.5913214,0.71599747" id="Fill-48" fill="#276E9D" mask="url(#mask-4)"></path>
                    <path d="M57.6479957,5.02942299 C58.7534243,4.60114546 59.3551529,3.51445573 58.99641,2.60217299 C58.6345386,1.69092225 57.4467243,1.29773251 56.3423386,1.72601004 C55.2358671,2.15428757 54.6320529,3.23994531 54.9928814,4.15326004 C55.35371,5.06451079 56.5415243,5.45770052 57.6479957,5.02942299" id="Fill-49" fill="#276E9D" mask="url(#mask-4)"></path>
                    <path d="M59.6674886,42.1222818 C56.9237314,41.749732 54.4438171,43.2812112 54.1278314,45.5454061 C53.8139314,47.811665 55.7818029,49.9509887 58.5266029,50.3245705 C61.2693171,50.6981524 63.7481886,49.1646092 64.0641743,46.9004143 C64.3791171,44.6351874 62.4122886,42.4968957 59.6674886,42.1222818" id="Fill-50" fill="#276E9D" mask="url(#mask-4)"></path>
                    <path d="M40.1964071,31.2274175 C37.9897214,32.5008981 37.4505643,35.6587999 38.99295,38.2800648 C40.5384643,40.8972017 43.5783929,41.9869874 45.7861214,40.7135068 C47.9948929,39.4410581 48.5319643,36.2841883 46.9906214,33.6639554 C45.44615,31.0437225 42.4041357,29.9529048 40.1964071,31.2274175" id="Fill-51" fill="#276E9D" mask="url(#mask-4)"></path>
                    <path d="M21.7187514,10.2982686 C19.9782229,10.6470826 18.9280657,12.1682418 19.3733657,13.691465 C19.8176229,15.2157202 21.5873514,16.1661868 23.3268371,15.8163408 C25.0684086,15.4654628 26.1185657,13.9443036 25.6753514,12.4221124 C25.2310943,10.8978571 23.45928,9.94635863 21.7187514,10.2982686" id="Fill-52" fill="#276E9D" mask="url(#mask-4)"></path>
                    <path d="M13.6284743,16.7199548 C12.9255886,15.5558655 11.2987314,15.4113863 9.99098857,16.3959086 C8.68428857,17.379399 8.19310286,19.1193409 8.89390286,20.2823982 C9.59678857,21.4454555 11.2236457,21.5899347 12.5313886,20.6054124 C13.8391314,19.621922 14.3292743,17.8819801 13.6284743,16.7199548" id="Fill-53" fill="#276E9D" mask="url(#mask-4)"></path>
                    <path d="M7.90444,26.7567161 C6.81674,26.8072838 6.05545429,27.989949 6.20458286,29.4017168 C6.35475429,30.8155487 7.35694,31.9218463 8.44255429,31.8723106 C9.53129714,31.8238068 10.29154,30.6411417 10.1424114,29.2273098 C9.99328286,27.815542 8.99005429,26.7092443 7.90444,26.7567161" id="Fill-54" fill="#276E9D" mask="url(#mask-4)"></path>
                    <path d="M14.1615829,36.8948192 C13.1228971,36.1228876 11.8380971,36.1517835 11.29164,36.9598348 C10.7462257,37.7689182 11.1477257,39.0485908 12.1853686,39.8205223 C13.22614,40.5914219 14.51094,40.561494 15.0542686,39.7524107 C15.6038543,38.9443594 15.2013114,37.6657187 14.1615829,36.8948192" id="Fill-55" fill="#276E9D" mask="url(#mask-4)"></path>
                    <path d="M21.9967771,41.7272345 C21.0748914,41.815986 20.4585629,42.508454 20.6222914,43.2741936 C20.7839343,44.0419972 21.66202,44.593082 22.5839057,44.5043305 C23.5068343,44.415579 24.12212,43.723111 23.9594343,42.9573714 C23.7977914,42.1885359 22.9186629,41.638483 21.9967771,41.7272345" id="Fill-56" fill="#276E9D" mask="url(#mask-4)"></path>
                    <path d="M31.3845771,17.4637129 C29.9892343,18.3728996 29.7055771,20.6329666 30.7536486,22.5153237 C31.7996343,24.3966489 33.7821057,25.1840603 35.1764057,24.2748736 C36.5717486,23.3656868 36.8543629,21.1035559 35.8062914,19.2232627 C34.75822,17.3419376 32.7788771,16.5555581 31.3845771,17.4637129" id="Fill-57" fill="#276E9D" mask="url(#mask-4)"></path>
                    <path d="M30.16652,42.0345624 C29.5960771,42.3245527 29.3760343,42.9272372 29.67742,43.3792506 C29.9808914,43.833328 30.6869057,43.9664552 31.2583914,43.6774969 C31.8298771,43.3875065 32.0488771,42.785854 31.7474914,42.3328086 C31.4450629,41.8797632 30.7369629,41.746636 30.16652,42.0345624" id="Fill-58" fill="#276E9D" mask="url(#mask-4)"></path>
                    <path d="M73.1732186,39.5332152 C71.2251614,41.0007107 70.65159,43.4919443 71.8873757,45.0946311 C73.1221186,46.7004138 75.7000614,46.8149652 77.64499,45.3495336 C79.5899186,43.8830701 80.1676614,41.3939004 78.92979,39.7881177 C77.69609,38.182335 75.1181471,38.0688156 73.1732186,39.5332152" id="Fill-59" fill="#276E9D" mask="url(#mask-4)"></path>
                    <path d="M84.4735143,26.8675522 C82.8414429,26.4248268 81.0831857,27.6384518 80.5471571,29.5755046 C80.0111286,31.5115254 80.9006857,33.4392903 82.5348429,33.8830478 C84.1669143,34.3257732 85.9241286,33.1121482 86.4591143,31.1750954 C86.9961857,29.2390746 86.1055857,27.3102777 84.4735143,26.8675522" id="Fill-60" fill="#276E9D" mask="url(#mask-4)"></path>
                    <path d="M84.8131729,21.634104 C86.3044586,21.2305943 87.1158014,19.4700125 86.6277443,17.7032387 C86.1386443,15.9344009 84.53473,14.8270713 83.0434443,15.2316129 C81.5532014,15.6361546 80.7418586,17.3957045 81.2299157,19.1624783 C81.7190157,20.9302841 83.3218871,22.0386457 84.8131729,21.634104" id="Fill-61" fill="#276E9D" mask="url(#mask-4)"></path>
                    <path d="M79.8255,6.64800246 C78.5354857,5.33427403 76.5905571,5.12993921 75.4830429,6.19598906 C74.3734429,7.26100692 74.5225714,9.19083579 75.8125857,10.5055962 C77.1026,11.8213886 79.0464857,12.0236594 80.1560857,10.9586416 C81.2646429,9.89259174 81.1165571,7.96276287 79.8255,6.64800246" id="Fill-62" fill="#276E9D" mask="url(#mask-4)"></path>
                    <path d="M68.5913214,0.71599747 C66.9394357,0.257792113 65.28755,0.991539881 64.90065,2.35377202 C64.5147929,3.71703616 65.5399214,5.19278765 67.1907643,5.65099301 C68.8436929,6.11023036 70.4955786,5.37854658 70.8814357,4.01425045 C71.2683357,2.64995432 70.2411214,1.17420283 68.5913214,0.71599747" id="Fill-63" fill="#276E9D" mask="url(#mask-4)"></path>
                    <path d="M57.6479957,5.02942299 C58.7534243,4.60114546 59.3551529,3.51445573 58.99641,2.60217299 C58.6345386,1.69092225 57.4467243,1.29773251 56.3423386,1.72601004 C55.2358671,2.15428757 54.6320529,3.23994531 54.9928814,4.15326004 C55.35371,5.06451079 56.5415243,5.45770052 57.6479957,5.02942299" id="Fill-64" fill="#276E9D" mask="url(#mask-4)"></path>
                    <path d="M59.6674886,42.1222818 C56.9237314,41.749732 54.4438171,43.2812112 54.1278314,45.5454061 C53.8139314,47.811665 55.7818029,49.9509887 58.5266029,50.3245705 C61.2693171,50.6981524 63.7481886,49.1646092 64.0641743,46.9004143 C64.3791171,44.6351874 62.4122886,42.4968957 59.6674886,42.1222818" id="Fill-65" fill="#276E9D" mask="url(#mask-4)"></path>
                    <path d="M40.1964071,31.2274175 C37.9897214,32.5008981 37.4505643,35.6587999 38.99295,38.2800648 C40.5384643,40.8972017 43.5783929,41.9869874 45.7861214,40.7135068 C47.9948929,39.4410581 48.5319643,36.2841883 46.9906214,33.6639554 C45.44615,31.0437225 42.4041357,29.9529048 40.1964071,31.2274175" id="Fill-66" fill="#276E9D" mask="url(#mask-4)"></path>
                    <path d="M21.7187514,10.2982686 C19.9782229,10.6470826 18.9280657,12.1682418 19.3733657,13.691465 C19.8176229,15.2157202 21.5873514,16.1661868 23.3268371,15.8163408 C25.0684086,15.4654628 26.1185657,13.9443036 25.6753514,12.4221124 C25.2310943,10.8978571 23.45928,9.94635863 21.7187514,10.2982686" id="Fill-67" fill="#276E9D" mask="url(#mask-4)"></path>
                    <path d="M13.6284743,16.7199548 C12.9255886,15.5558655 11.2987314,15.4113863 9.99098857,16.3959086 C8.68428857,17.379399 8.19310286,19.1193409 8.89390286,20.2823982 C9.59678857,21.4454555 11.2236457,21.5899347 12.5313886,20.6054124 C13.8391314,19.621922 14.3292743,17.8819801 13.6284743,16.7199548" id="Fill-68" fill="#276E9D" mask="url(#mask-4)"></path>
                    <path d="M7.90444,26.7567161 C6.81674,26.8072838 6.05545429,27.989949 6.20458286,29.4017168 C6.35475429,30.8155487 7.35694,31.9218463 8.44255429,31.8723106 C9.53129714,31.8238068 10.29154,30.6411417 10.1424114,29.2273098 C9.99328286,27.815542 8.99005429,26.7092443 7.90444,26.7567161" id="Fill-69" fill="#276E9D" mask="url(#mask-4)"></path>
                    <path d="M14.1615829,36.8948192 C13.1228971,36.1228876 11.8380971,36.1517835 11.29164,36.9598348 C10.7462257,37.7689182 11.1477257,39.0485908 12.1853686,39.8205223 C13.22614,40.5914219 14.51094,40.561494 15.0542686,39.7524107 C15.6038543,38.9443594 15.2013114,37.6657187 14.1615829,36.8948192" id="Fill-70" fill="#276E9D" mask="url(#mask-4)"></path>
                    <path d="M21.9967771,41.7272345 C21.0748914,41.815986 20.4585629,42.508454 20.6222914,43.2741936 C20.7839343,44.0419972 21.66202,44.593082 22.5839057,44.5043305 C23.5068343,44.415579 24.12212,43.723111 23.9594343,42.9573714 C23.7977914,42.1885359 22.9186629,41.638483 21.9967771,41.7272345" id="Fill-71" fill="#276E9D" mask="url(#mask-4)"></path>
                    <path d="M31.3845771,17.4637129 C29.9892343,18.3728996 29.7055771,20.6329666 30.7536486,22.5153237 C31.7996343,24.3966489 33.7821057,25.1840603 35.1764057,24.2748736 C36.5717486,23.3656868 36.8543629,21.1035559 35.8062914,19.2232627 C34.75822,17.3419376 32.7788771,16.5555581 31.3845771,17.4637129" id="Fill-72" fill="#276E9D" mask="url(#mask-4)"></path>
                    <path d="M30.16652,42.0345624 C29.5960771,42.3245527 29.3760343,42.9272372 29.67742,43.3792506 C29.9808914,43.833328 30.6869057,43.9664552 31.2583914,43.6774969 C31.8298771,43.3875065 32.0488771,42.785854 31.7474914,42.3328086 C31.4450629,41.8797632 30.7369629,41.746636 30.16652,42.0345624" id="Fill-73" fill="#276E9D" mask="url(#mask-4)"></path>
                    <path d="M73.1732186,39.5332152 C71.2251614,41.0007107 70.65159,43.4919443 71.8873757,45.0946311 C73.1221186,46.7004138 75.7000614,46.8149652 77.64499,45.3495336 C79.5899186,43.8830701 80.1676614,41.3939004 78.92979,39.7881177 C77.69609,38.182335 75.1181471,38.0688156 73.1732186,39.5332152" id="Fill-74" fill="#276E9D" mask="url(#mask-4)"></path>
                    <path d="M84.4735143,26.8675522 C82.8414429,26.4248268 81.0831857,27.6384518 80.5471571,29.5755046 C80.0111286,31.5115254 80.9006857,33.4392903 82.5348429,33.8830478 C84.1669143,34.3257732 85.9241286,33.1121482 86.4591143,31.1750954 C86.9961857,29.2390746 86.1055857,27.3102777 84.4735143,26.8675522" id="Fill-75" fill="#276E9D" mask="url(#mask-4)"></path>
                    <path d="M84.8131729,21.634104 C86.3044586,21.2305943 87.1158014,19.4700125 86.6277443,17.7032387 C86.1386443,15.9344009 84.53473,14.8270713 83.0434443,15.2316129 C81.5532014,15.6361546 80.7418586,17.3957045 81.2299157,19.1624783 C81.7190157,20.9302841 83.3218871,22.0386457 84.8131729,21.634104" id="Fill-76" fill="#276E9D" mask="url(#mask-4)"></path>
                    <path d="M79.8255,6.64800246 C78.5354857,5.33427403 76.5905571,5.12993921 75.4830429,6.19598906 C74.3734429,7.26100692 74.5225714,9.19083579 75.8125857,10.5055962 C77.1026,11.8213886 79.0464857,12.0236594 80.1560857,10.9586416 C81.2646429,9.89259174 81.1165571,7.96276287 79.8255,6.64800246" id="Fill-77" fill="#276E9D" mask="url(#mask-4)"></path>
                    <path d="M68.5913214,0.71599747 C66.9394357,0.257792113 65.28755,0.991539881 64.90065,2.35377202 C64.5147929,3.71703616 65.5399214,5.19278765 67.1907643,5.65099301 C68.8436929,6.11023036 70.4955786,5.37854658 70.8814357,4.01425045 C71.2683357,2.64995432 70.2411214,1.17420283 68.5913214,0.71599747" id="Fill-78" fill="#276E9D" mask="url(#mask-4)"></path>
                    <path d="M57.6479957,5.02942299 C58.7534243,4.60114546 59.3551529,3.51445573 58.99641,2.60217299 C58.6345386,1.69092225 57.4467243,1.29773251 56.3423386,1.72601004 C55.2358671,2.15428757 54.6320529,3.23994531 54.9928814,4.15326004 C55.35371,5.06451079 56.5415243,5.45770052 57.6479957,5.02942299" id="Fill-79" fill="#276E9D" mask="url(#mask-4)"></path>
                    <path d="M59.6674886,42.1222818 C56.9237314,41.749732 54.4438171,43.2812112 54.1278314,45.5454061 C53.8139314,47.811665 55.7818029,49.9509887 58.5266029,50.3245705 C61.2693171,50.6981524 63.7481886,49.1646092 64.0641743,46.9004143 C64.3791171,44.6351874 62.4122886,42.4968957 59.6674886,42.1222818" id="Fill-80" fill="#276E9D" mask="url(#mask-4)"></path>
                    <path d="M40.1964071,31.2274175 C37.9897214,32.5008981 37.4505643,35.6587999 38.99295,38.2800648 C40.5384643,40.8972017 43.5783929,41.9869874 45.7861214,40.7135068 C47.9948929,39.4410581 48.5319643,36.2841883 46.9906214,33.6639554 C45.44615,31.0437225 42.4041357,29.9529048 40.1964071,31.2274175" id="Fill-81" fill="#276E9D" mask="url(#mask-4)"></path>
                    <path d="M21.7187514,10.2982686 C19.9782229,10.6470826 18.9280657,12.1682418 19.3733657,13.691465 C19.8176229,15.2157202 21.5873514,16.1661868 23.3268371,15.8163408 C25.0684086,15.4654628 26.1185657,13.9443036 25.6753514,12.4221124 C25.2310943,10.8978571 23.45928,9.94635863 21.7187514,10.2982686" id="Fill-82" fill="#276E9D" mask="url(#mask-4)"></path>
                    <path d="M13.6284743,16.7199548 C12.9255886,15.5558655 11.2987314,15.4113863 9.99098857,16.3959086 C8.68428857,17.379399 8.19310286,19.1193409 8.89390286,20.2823982 C9.59678857,21.4454555 11.2236457,21.5899347 12.5313886,20.6054124 C13.8391314,19.621922 14.3292743,17.8819801 13.6284743,16.7199548" id="Fill-83" fill="#276E9D" mask="url(#mask-4)"></path>
                    <path d="M7.90444,26.7567161 C6.81674,26.8072838 6.05545429,27.989949 6.20458286,29.4017168 C6.35475429,30.8155487 7.35694,31.9218463 8.44255429,31.8723106 C9.53129714,31.8238068 10.29154,30.6411417 10.1424114,29.2273098 C9.99328286,27.815542 8.99005429,26.7092443 7.90444,26.7567161" id="Fill-84" fill="#276E9D" mask="url(#mask-4)"></path>
                    <path d="M14.1615829,36.8948192 C13.1228971,36.1228876 11.8380971,36.1517835 11.29164,36.9598348 C10.7462257,37.7689182 11.1477257,39.0485908 12.1853686,39.8205223 C13.22614,40.5914219 14.51094,40.561494 15.0542686,39.7524107 C15.6038543,38.9443594 15.2013114,37.6657187 14.1615829,36.8948192" id="Fill-85" fill="#276E9D" mask="url(#mask-4)"></path>
                    <path d="M21.9967771,41.7272345 C21.0748914,41.815986 20.4585629,42.508454 20.6222914,43.2741936 C20.7839343,44.0419972 21.66202,44.593082 22.5839057,44.5043305 C23.5068343,44.415579 24.12212,43.723111 23.9594343,42.9573714 C23.7977914,42.1885359 22.9186629,41.638483 21.9967771,41.7272345" id="Fill-86" fill="#276E9D" mask="url(#mask-4)"></path>
                    <path d="M31.3845771,17.4637129 C29.9892343,18.3728996 29.7055771,20.6329666 30.7536486,22.5153237 C31.7996343,24.3966489 33.7821057,25.1840603 35.1764057,24.2748736 C36.5717486,23.3656868 36.8543629,21.1035559 35.8062914,19.2232627 C34.75822,17.3419376 32.7788771,16.5555581 31.3845771,17.4637129" id="Fill-87" fill="#276E9D" mask="url(#mask-4)"></path>
                    <path d="M30.16652,42.0345624 C29.5960771,42.3245527 29.3760343,42.9272372 29.67742,43.3792506 C29.9808914,43.833328 30.6869057,43.9664552 31.2583914,43.6774969 C31.8298771,43.3875065 32.0488771,42.785854 31.7474914,42.3328086 C31.4450629,41.8797632 30.7369629,41.746636 30.16652,42.0345624" id="Fill-88" fill="#276E9D" mask="url(#mask-4)"></path>
                    <path d="M77.0442,44.5671789 C75.6843143,45.592981 73.9552571,45.6084609 73.1814571,44.6032987 C72.4076571,43.6002005 72.8842429,41.953138 74.2441286,40.9304319 C75.6061,39.9025658 77.3351571,39.8870859 78.1079143,40.8922481 C78.8806714,41.8963783 78.4040857,43.5434408 77.0442,44.5671789" id="Fill-89" fill="#BCE3FA" mask="url(#mask-4)"></path>
                    <path d="M85.6645614,30.9603374 C85.2891329,32.3132816 84.1576329,33.1873806 83.1366757,32.9128702 C82.1157186,32.6362958 81.5901186,31.3143114 81.96659,29.9582712 C82.33889,28.604295 83.47039,27.7301961 84.49239,28.0078025 C85.51439,28.2843769 86.03999,29.6063612 85.6645614,30.9603374" id="Fill-90" fill="#BCE3FA" mask="url(#mask-4)"></path>
                    <path d="M83.5936557,16.1173734 C84.5270129,15.8645349 85.5594414,16.6632983 85.9004557,17.8985952 C86.2435557,19.136988 85.7648843,20.3433891 84.8315271,20.5951956 C83.89817,20.8480342 82.8657414,20.0513347 82.5236843,18.8139739 C82.1816271,17.577645 82.6602986,16.36918 83.5936557,16.1173734" id="Fill-91" fill="#BCE3FA" mask="url(#mask-4)"></path>
                    <path d="M79.6655257,10.0382061 C78.9720257,10.7048743 77.6757543,10.4995074 76.7747257,9.58206473 C75.8726543,8.66152604 75.7026686,7.37462946 76.3951257,6.7089933 C77.0896686,6.04232515 78.3838543,6.24769196 79.2869686,7.16823065 C80.18904,8.08567336 80.3590257,9.37256994 79.6655257,10.0382061" id="Fill-92" fill="#BCE3FA" mask="url(#mask-4)"></path>
                    <path d="M70.0552843,3.50361979 C69.8143843,4.35707887 68.6818414,4.78948437 67.5273986,4.46853423 C66.3729557,4.14758408 65.6314843,3.19505357 65.8734271,2.34365848 C66.1132843,1.4901994 67.2479129,1.06088988 68.4023557,1.37771205 C69.5578414,1.6996942 70.29827,2.65119271 70.0552843,3.50361979" id="Fill-93" fill="#BCE3FA" mask="url(#mask-4)"></path>
                    <path d="M56.5164957,2.17028348 C57.2892529,1.87100521 58.0995529,2.09185193 58.32481,2.66151265 C58.55111,3.23117336 58.1078957,3.93808929 57.3351386,4.23736756 C56.5623814,4.53664583 55.7531243,4.31579911 55.5268243,3.7451064 C55.3005243,3.17647768 55.7447814,2.46956176 56.5164957,2.17028348" id="Fill-94" fill="#BCE3FA" mask="url(#mask-4)"></path>
                    <path d="M62.5108386,47.130033 C62.3126957,48.5469608 60.5971957,49.4829794 58.6793814,49.2198209 C56.7605243,48.9597584 55.3651814,47.5985583 55.5622814,46.1816304 C55.7583386,44.7647026 57.4738386,43.827652 59.3937386,44.0887465 C61.3115529,44.350873 62.7058529,45.7110411 62.5108386,47.130033" id="Fill-95" fill="#BCE3FA" mask="url(#mask-4)"></path>
                    <path d="M44.52562,39.5302224 C43.1438343,40.3289858 41.1478057,39.4889426 40.0684486,37.6581852 C38.9890914,35.8253638 39.2341629,33.6932641 40.6149057,32.8965647 C41.9987771,32.0988333 43.9916771,32.9378444 45.0710343,34.7696339 C46.1524771,36.6034873 45.9063629,38.732491 44.52562,39.5302224" id="Fill-96" fill="#BCE3FA" mask="url(#mask-4)"></path>
                    <path d="M4.33953714,35.1033807 C4.16955143,34.7937825 3.85565143,34.2189618 3.53653714,33.50379 C3.19448,32.7411464 2.90248,31.9465109 2.66992286,31.1405236 C2.37166571,30.1033696 2.16830857,29.1828309 2.05046571,28.3200839 C1.72300857,26.045569 1.86275143,23.956813 1.97329429,22.913467 C2.04420857,22.2086151 2.13910857,21.6224425 2.22149429,21.1466932 L2.35080857,20.4686731 C2.39252286,20.2395705 2.23922286,20.0176917 2.00562286,19.973316 C1.77723714,19.9341002 1.55093714,20.0837394 1.50713714,20.31697 C1.50713714,20.31697 1.46229429,20.5636166 1.37990857,21.0011821 C1.29648,21.4975712 1.20262286,22.1043837 1.13275143,22.8309075 C1.02116571,23.9165653 0.88768,26.0878807 1.23390857,28.4325712 C1.36218,29.33763 1.58013714,30.2942885 1.89925143,31.3624023 C2.14640857,32.1921255 2.46760857,33.0414566 2.82530857,33.8206121 C3.12669429,34.4748964 3.41035143,34.9970853 3.67315143,35.4687066 L4.02042286,36.0724231 L4.02146571,36.0734551 C4.09342286,36.1921344 4.22065143,36.2592141 4.35205143,36.2592141 C4.41566571,36.2592141 4.47928,36.2437342 4.53872286,36.2096783 C4.71600857,36.1075109 4.77962286,35.8784083 4.67846571,35.7019373 L4.33953714,35.1033807 Z" id="Fill-97" fill="#BCE3FA" mask="url(#mask-4)"></path>
                    <path d="M78.7724229,19.6748633 C78.54508,18.3281111 78.1310657,16.958655 77.5731371,15.7151022 C77.1674657,14.8131394 76.6867086,13.9524563 76.1412943,13.1598849 C75.7429229,12.5799042 75.4968086,12.273402 75.48638,12.2599861 L75.4801229,12.2537941 C75.36228,12.1103469 75.1526657,12.0876431 75.01188,12.1990984 C74.86588,12.3115858 74.8377229,12.5210806 74.9524371,12.6686557 C74.9545229,12.6717517 75.2006371,12.9834139 75.5708514,13.5386267 C76.0818514,14.3023023 76.5323657,15.1320255 76.9109229,16.0019965 C77.4292229,17.1949816 77.8098657,18.5056141 78.0111371,19.7956066 C78.2478657,21.284774 78.2645514,22.844117 78.0622371,24.3095486 C77.86618,25.793556 77.4406943,27.2920114 76.8327086,28.6449556 C76.3018943,29.8327807 75.5896229,30.9886141 74.7730657,31.9855203 C74.1963657,32.6934682 73.5362371,33.3549764 72.8177086,33.952501 C72.3046229,34.3725225 71.9855086,34.5892413 71.97508,34.5974972 C71.85828,34.6779928 71.7800657,34.8028641 71.7571229,34.9421833 C71.7320943,35.0845984 71.7665086,35.2239176 71.8478514,35.339501 C71.9521371,35.4850121 72.1148229,35.5624117 72.2848086,35.5624117 C72.3953514,35.5624117 72.5090229,35.5293879 72.61018,35.4592123 C72.62478,35.4468283 72.9564086,35.2125657 73.4997371,34.7492004 C74.2589371,34.0990441 74.9513943,33.3766483 75.55938,32.6016208 C76.4113943,31.521123 77.1455657,30.2775702 77.68368,29.0092495 C78.2989657,27.5675538 78.72028,25.975187 78.8975657,24.410684 C79.0790229,22.844117 79.0352229,21.2053105 78.7724229,19.6748633" id="Fill-98" fill="#BCE3FA" mask="url(#mask-4)"></path>
                    <path d="M35.4516157,6.77700171 C35.1815157,6.58298683 34.8457157,6.34872418 34.4223157,6.07834174 C33.1708871,5.27854635 31.8391586,4.61291019 30.4657157,4.10104115 C28.5687586,3.38896525 26.4601014,2.93901585 24.3691729,2.79969665 C22.0144014,2.6345776 19.5689014,2.88019219 17.2933871,3.49938862 C16.2369729,3.77493103 15.0960871,4.20527254 13.90723,4.77906124 C12.87793,5.27338638 11.86323,5.85439903 10.8912871,6.51074725 C9.98504429,7.12891168 9.12885857,7.80383579 8.34150143,8.52107165 C7.62297286,9.17329189 6.94511571,9.87607984 6.32565857,10.6067316 C5.40481571,11.6923894 4.57574429,12.8853745 3.85930143,14.1578231 C3.36394429,15.0577219 3.12408714,15.5943589 3.11157286,15.6242867 C3.01145857,15.8482294 3.10844429,16.1041639 3.33370143,16.2104593 C3.39314429,16.2383231 3.45884429,16.2527711 3.52245857,16.2527711 C3.57564429,16.2527711 3.62674429,16.2434831 3.67784429,16.2249072 C3.79151571,16.1836275 3.88120143,16.1010679 3.93230143,15.9947725 C3.93438714,15.9896126 4.18258714,15.4684556 4.67898714,14.6170605 C5.38708714,13.4199474 6.20573,12.2971379 7.11405857,11.2744318 C7.73143,10.5798998 8.37383,9.94522344 9.07775857,9.33221897 C9.84321571,8.66658281 10.67333,8.04325841 11.5430729,7.47875766 C12.4816443,6.87710513 13.4556729,6.3456282 14.44013,5.90083876 C15.6112586,5.37039382 16.6238729,5.01435588 17.6291871,4.77596525 C19.7712157,4.24448832 22.0623729,4.06904933 24.2534157,4.26822418 C26.7030871,4.48907091 28.6615729,5.11549129 29.87233,5.6005285 C31.1268871,6.10104561 32.3376443,6.74191391 33.47123,7.50249353 C33.9029729,7.78938787 34.2241729,8.03190647 34.3931157,8.15987374 L34.7289157,8.41684025 L34.7445586,8.43025618 C34.9333157,8.56751138 35.1690014,8.62323906 35.4005157,8.59021525 C35.63203,8.55512746 35.8374729,8.43335216 35.9761729,8.24656124 C36.1159157,8.06080231 36.1753586,7.83169963 36.1409443,7.60156496 C36.10653,7.37039829 35.98243,7.16606347 35.79263,7.02674427 L35.4516157,6.77700171 Z" id="Fill-99" fill="#BCE3FA" mask="url(#mask-4)"></path>
                    <path d="M50.0072943,29.0273094 C49.6610657,28.4132729 49.3336086,27.7796286 49.0353514,27.1459842 C48.4711657,25.9292632 47.80478,24.3946881 47.0998086,22.7662015 L46.41778,21.1903466 C45.9547514,20.1273927 45.4552229,19.0592789 44.9317086,18.0128369 C44.4811943,17.13461 43.95038,16.1273838 43.4372943,15.3255244 C43.1870086,14.8962149 42.9346371,14.5195371 42.76778,14.2759865 C42.5967514,14.015924 42.3944371,13.7156137 42.2119371,13.485479 L41.6790371,12.788883 C41.43918,12.5112766 41.0168229,12.4772208 40.7415086,12.7135475 C40.6038514,12.8280988 40.5214657,12.9859939 40.5068657,13.1634969 C40.4922657,13.3389359 40.5475371,13.5102469 40.6820657,13.668142 L41.20558,14.2749545 C41.3849514,14.4720653 41.5914371,14.7403838 41.7687229,14.9787744 C42.0033657,15.2832126 42.2327943,15.5855869 42.4663943,15.9395609 C43.0128514,16.7197484 43.5895514,17.7104626 44.0296371,18.4844582 C44.5959086,19.5061323 45.1350657,20.5370943 45.6272943,21.5505125 C46.0924086,22.4803391 46.5251943,23.4204857 46.94338,24.3307045 L47.1081514,24.6888064 C47.5617943,25.6743607 48.0123086,26.6248272 48.4138086,27.4401025 C48.8330371,28.2749857 49.1740514,28.919982 49.4285086,29.3637394 L49.84878,30.0613674 L49.84878,30.0623994 C49.9113514,30.1666308 50.02398,30.2244225 50.1386943,30.2244225 C50.1970943,30.2244225 50.2565371,30.2089426 50.3118086,30.1769507 C50.4703229,30.0809753 50.5214229,29.8756085 50.4265229,29.7197774 L50.0072943,29.0273094 Z" id="Fill-100" fill="#BCE3FA" mask="url(#mask-4)"></path>
                    <path d="M33.8868086,23.2656866 C34.9181943,23.0118161 35.4156371,21.7352394 34.9984943,20.4091271 C34.5823943,19.0871427 33.4070943,18.2192357 32.3777943,18.4720743 C31.3453657,18.7259448 30.8500086,20.0045854 31.2661086,21.3265698 C31.6832514,22.6516501 32.8575086,23.5185251 33.8868086,23.2656866" id="Fill-101" fill="#BCE3FA" mask="url(#mask-4)"></path>
                    <path d="M20.4014143,13.4304737 C20.2992143,14.3159246 21.1783429,15.0847602 22.3640714,15.1477118 C23.5487571,15.2116955 24.5937,14.5439953 24.6948571,13.6595764 C24.7949714,12.7730935 23.9158429,12.00529 22.7301143,11.9423383 C21.5443857,11.8793867 20.5004857,12.5460548 20.4014143,13.4304737" id="Fill-102" fill="#BCE3FA" mask="url(#mask-4)"></path>
                    <path d="M8.07557286,27.6214239 C7.34348714,27.6482557 6.82518714,28.4387632 6.91695857,29.3881977 C7.00768714,30.3366002 7.67094429,31.0868599 8.40198714,31.062092 C9.13198714,31.0362922 9.65341571,30.2457847 9.56164429,29.2963502 C9.47195857,28.3469157 8.80557286,27.596656 8.07557286,27.6214239" id="Fill-103" fill="#BCE3FA" mask="url(#mask-4)"></path>
                    <path d="M12.1726457,37.2323844 C11.6939743,37.6689179 11.8097314,38.5017371 12.4302314,39.0930697 C13.0486457,39.6844023 13.9402886,39.8113376 14.4179171,39.3748041 C14.8965886,38.9382706 14.7808314,38.1064834 14.1592886,37.5120548 C13.5408743,36.9207222 12.6513171,36.796883 12.1726457,37.2323844" id="Fill-104" fill="#BCE3FA" mask="url(#mask-4)"></path>
                    <path d="M21.1418429,42.6835834 C20.9802,43.1500447 21.3671,43.6691377 22.0022,43.8414807 C22.6362571,44.0138237 23.2807429,43.7774971 23.4413429,43.3089718 C23.5998571,42.8435425 23.2150429,42.3254815 22.5789,42.1521065 C21.9438,41.9807955 21.2993143,42.2181541 21.1418429,42.6835834" id="Fill-105" fill="#BCE3FA" mask="url(#mask-4)"></path>
                    <path d="M29.9715057,42.8025723 C29.96212,43.1039146 30.2843629,43.3371452 30.6869057,43.3278573 C31.0915343,43.3154734 31.4242057,43.0605708 31.4325486,42.7581966 C31.4419343,42.4578863 31.1217771,42.2225917 30.7171486,42.2360076 C30.3146057,42.2473595 29.9808914,42.5022621 29.9715057,42.8025723" id="Fill-106" fill="#BCE3FA" mask="url(#mask-4)"></path>
                    <path d="M12.9853443,17.5211949 C12.52023,16.7502954 11.4419157,16.6543199 10.5742586,17.3065402 C9.70868714,17.9587604 9.38331571,19.1125298 9.84738714,19.8834293 C10.3125014,20.6532969 11.3918586,20.7503043 12.2584729,20.0960201 C13.1240443,19.4437999 13.4494157,18.2920945 12.9853443,17.5211949" id="Fill-107" fill="#BCE3FA" mask="url(#mask-4)"></path>
                </g>
            </g>
        </g>
    </g>
</svg>